<svg xmlns="http://www.w3.org/2000/svg" width="107" height="31" fill="none">
  <path fill="#fff" d="M15.9.14c.41-.05.9.04 1.3.17.92.28 1.66.87 2.1 1.73.46.87.55 1.9.25 2.83-.39 1.16-1.21 1.74-2.24 2.28l.01 3.38c.74.22 1.45.48 2.12.86a6.59 6.59 0 0 1 3.03 4.1c.46 1.8.2 3.7-.74 5.29a6.28 6.28 0 0 1-3.87 2.93c-2.14.53-3.96-.05-5.8-1.14-.81.87-1.61 1.75-2.4 2.64a4 4 0 0 1 .23 2.6 3.4 3.4 0 0 1-1.62 2.05c-.87.5-1.87.59-2.82.31a3.53 3.53 0 0 1-2.22-1.74 3.66 3.66 0 0 1 1.8-5c1.03-.41 1.89-.28 2.9.09.85-.89 1.64-1.82 2.5-2.7a7.24 7.24 0 0 1-.76-5.43c-1.06-.5-2.08-1.08-3.14-1.57a3.7 3.7 0 0 1-2.08 1.13c-.97.16-2-.1-2.8-.67a3.6 3.6 0 0 1-.72-5.13A3.82 3.82 0 0 1 3.5 7.82c.95-.1 1.9.2 2.65.8.94.8 1.22 1.79 1.33 2.96 1 .62 2.16 1.1 3.2 1.64 1.37-1.61 2.37-2.12 4.36-2.73V7.13a3.6 3.6 0 0 1-1.7-5.66A3.7 3.7 0 0 1 15.9.14Zm4.38 16.68a4.21 4.21 0 1 0-8.4.74 4.21 4.21 0 0 0 8.4-.74Zm78.64-5.24c.68 0 1.37.01 2.05.03v3.63a3.4 3.4 0 0 1 4.33-.17 4.21 4.21 0 0 1 1.47 2.86 4.98 4.98 0 0 1-.98 3.74c-.56.54-1.23.91-2 1.04-1.13.18-2.02-.21-2.9-.87v.8h-1.97V11.57Zm3.52 4.75c-.6.2-1.03.5-1.33 1.09a2.7 2.7 0 0 0-.1 2.14c.2.52.57.97 1.08 1.2.38.17.73.18 1.13.15.64-.24 1.07-.55 1.36-1.19.3-.66.3-1.47.01-2.14a2.05 2.05 0 0 0-1.14-1.14 2.1 2.1 0 0 0-1-.1Zm-62.46-4.77c1.2 3.72 2.75 7.34 3.93 11.07H41.7c-.26-.8-.52-1.7-.91-2.43-.26-.11-.57-.07-.85-.07-1.07.01-2.15 0-3.22-.01-.33.82-.6 1.67-.87 2.51h-2.27c1.18-3.71 2.6-7.38 3.87-11.06.85.02 1.7 0 2.54 0Zm-1.27 2.75c-.46 1.33-.9 2.68-1.41 4h1.63l1.26-.02c-.18-.5-1.2-3.75-1.48-3.98Zm48.17-2.72 2.13.01c-.03 2.56 0 5.13 0 7.7 0 1.06.1 2.21-.02 3.26l-.12.08h-1.99V17.9c-1.6-.04-3.2 0-4.8 0v4.74h-2.14l.01-11.05h2.13v4.52h4.8V11.6Zm3.41 3.06c.7.02 1.41.01 2.12.01 0 1.13-.19 4.25.09 5.18.1.37.32.71.67.89.52.27 1.05.11 1.57-.07.23-.26.43-.5.55-.83.37-1.09.17-3.88.17-5.18.67.02 1.34 0 2.02 0-.02.78 0 1.56 0 2.33v5.65c-.66.01-1.32 0-1.98-.01l-.06-.07c0-.17.01-.3-.02-.48-.62.27-1.17.68-1.88.7-.81.01-1.7-.24-2.29-.83a3.4 3.4 0 0 1-.85-1.65c-.3-1.3-.12-4.2-.11-5.64Zm-28.59-.22c1.05-.09 2.15-.01 3 .7.6.5.8 1.1.86 1.84h-1.9c-.12-.21-.23-.45-.4-.6a1.46 1.46 0 0 0-1.04-.37c-.3.01-.66.13-.84.37-.11.15-.17.3-.13.5.22.97 2.7.85 3.5 1.37.5.33.88.92 1 1.5.1.61-.04 1.23-.4 1.73-.6.83-1.54 1.13-2.52 1.28-.9.06-1.95-.18-2.67-.73a2.62 2.62 0 0 1-1.01-1.96l1.93-.02c.04.12.08.24.14.35.28.51.84.63 1.35.78.35-.08.8-.17 1.05-.44.15-.17.2-.46.14-.67-.24-.82-2.62-.91-3.45-1.42-.49-.3-.85-.74-.98-1.31a2.04 2.04 0 0 1 .22-1.54c.52-.81 1.24-1.15 2.15-1.36Zm12.83-.01c.6-.05 1.18-.04 1.77.12.68.18 1.4.56 1.73 1.2.17.3.3.85.18 1.2-.54.11-1.21.03-1.77.03-.09-.28-.16-.5-.38-.69a1.37 1.37 0 0 0-1.03-.31c-.3.03-.66.17-.83.43a.56.56 0 0 0-.07.5c.35 1.03 2.45.78 3.27 1.25.52.3.96.82 1.1 1.4.17.64.06 1.34-.3 1.88-.54.8-1.4 1.11-2.32 1.29-.89.1-1.92-.08-2.67-.6-.76-.52-1-1.19-1.17-2.05l1.92-.02c.11.3.22.52.46.73.33.27.73.39 1.15.33.33-.04.66-.2.85-.47.13-.18.2-.4.14-.62-.24-.85-2.35-.8-3.2-1.25a2.41 2.41 0 0 1-1.18-1.43 1.95 1.95 0 0 1 .19-1.55c.46-.79 1.3-1.17 2.16-1.37ZM51 12.46c.63.02 1.27 0 1.9 0 0 .72 0 1.44.04 2.16h1.88v1.64h-1.8c0 1.03-.23 3.7.24 4.5.37.29 1.1.18 1.56.17v1.36c0 .14 0 .21-.08.34-.25.12-.5.14-.78.14-.73.01-1.73-.12-2.26-.67-1.05-1.1-.71-4.31-.7-5.84h-1.22V14.6l1.2.01.02-2.16Zm16.37-.01h1.87c-.01.73.02 1.45.03 2.16h1.91v1.65h-1.8c.02.98-.22 3.73.23 4.47.47.29 1.07.21 1.61.2v1.43l-.02.18c-.18.2-.47.19-.72.2-.77.01-1.83-.1-2.39-.7-1.04-1.08-.72-4.26-.7-5.78H66.1c-.02-.55 0-1.1-.01-1.64h1.27v-2.17Zm-40.42-1.23h.3c.3.05.6.2.77.47.18.28.2.66.23 1 .12 1.63.03 3.33.03 4.97 0 1.34.15 3.16-.1 4.45-.08.4-.35.6-.67.82-.12.01-.25.03-.38.02a1.01 1.01 0 0 1-.71-.35c-.18-.2-.18-.62-.2-.89-.1-1.88 0-3.82 0-5.7 0-1.08-.15-3.13.07-4.09.08-.34.4-.52.66-.7Zm21.72 3.37h.27c.32.35.16 1.48.15 1.95-.67 0-1.3-.03-1.84.46-.99.91-.65 4.28-.66 5.63-.54 0-1.57.2-1.98-.15l-.02-.33c.01-2.5-.05-5-.03-7.51.64.02 1.28 0 1.93 0l-.03 1.1c.12-.16.24-.35.38-.5.49-.55 1.15-.6 1.83-.65Zm7.32.03H58v8.02h-2.04l.02-8.02Zm-31.86-.77c.33.06.62.18.82.47.3.45.3 4.8.15 5.42-.08.34-.37.5-.65.67-.32-.02-.74-.05-.95-.32-.32-.41-.3-5.04-.11-5.62.1-.34.45-.48.74-.62Zm32.74-2.53a1.12 1.12 0 1 1 .26 2.22 1.12 1.12 0 0 1-.26-2.22Z"/>
</svg>
