<svg aria-hidden="true" style="position: absolute; width: 0; height: 0; overflow: hidden;" version="1.1" xmlns="http://www.w3.org/2000/svg" xmlns:xlink="http://www.w3.org/1999/xlink">
<defs>
<symbol id="icon-Youtube" viewBox="0 0 31 32">
<path fill="#fff" style="fill: var(--color1, #fff)" d="M28.089 10.063c-0.148-0.55-0.438-1.051-0.84-1.454s-0.903-0.694-1.452-0.843c-2.037-0.559-10.187-0.568-10.187-0.568s-8.148-0.009-10.187 0.526c-0.549 0.156-1.049 0.451-1.451 0.856s-0.694 0.907-0.846 1.457c-0.537 2.037-0.542 6.262-0.542 6.262s-0.005 4.246 0.528 6.262c0.299 1.115 1.177 1.995 2.293 2.296 2.058 0.559 10.185 0.568 10.185 0.568s8.15 0.009 10.187-0.524c0.55-0.149 1.051-0.439 1.454-0.841s0.694-0.903 0.845-1.452c0.539-2.036 0.542-6.259 0.542-6.259s0.026-4.247-0.529-6.284zM13.003 20.212l0.006-7.805 6.773 3.909-6.78 3.896z"></path>
</symbol>
<symbol id="icon-Instagram" viewBox="0 0 31 32">
<path fill="#fff" style="fill: var(--color1, #fff)" d="M15.608 6.705c3.128 0 3.498 0.014 4.728 0.069 1.143 0.050 1.76 0.242 2.172 0.402 0.544 0.211 0.937 0.467 1.344 0.874 0.412 0.412 0.663 0.8 0.878 1.345 0.16 0.412 0.352 1.033 0.402 2.172 0.055 1.235 0.069 1.605 0.069 4.728s-0.014 3.498-0.069 4.728c-0.050 1.143-0.242 1.76-0.402 2.172-0.211 0.544-0.466 0.937-0.874 1.344-0.412 0.412-0.8 0.663-1.344 0.878-0.412 0.16-1.034 0.352-2.172 0.402-1.235 0.055-1.605 0.069-4.728 0.069s-3.498-0.014-4.728-0.069c-1.143-0.050-1.76-0.242-2.172-0.402-0.544-0.211-0.937-0.466-1.345-0.874-0.412-0.412-0.663-0.8-0.878-1.344-0.16-0.412-0.352-1.034-0.402-2.172-0.055-1.235-0.069-1.605-0.069-4.728s0.014-3.498 0.069-4.728c0.050-1.143 0.242-1.76 0.402-2.172 0.211-0.544 0.467-0.937 0.874-1.345 0.412-0.412 0.8-0.663 1.345-0.878 0.412-0.16 1.033-0.352 2.172-0.402 1.23-0.055 1.601-0.069 4.728-0.069h0.001zM15.608 4.597c-3.178 0-3.575 0.014-4.824 0.069-1.244 0.055-2.099 0.256-2.839 0.544-0.773 0.301-1.427 0.699-2.076 1.353-0.654 0.65-1.052 1.303-1.353 2.071-0.288 0.746-0.489 1.596-0.544 2.839-0.055 1.253-0.069 1.651-0.069 4.829s0.014 3.575 0.069 4.824c0.055 1.244 0.256 2.099 0.544 2.839 0.302 0.773 0.699 1.427 1.353 2.076 0.649 0.649 1.303 1.052 2.071 1.349 0.746 0.288 1.596 0.489 2.839 0.544 1.248 0.055 1.646 0.069 4.824 0.069s3.576-0.014 4.824-0.069c1.244-0.055 2.099-0.256 2.839-0.544 0.768-0.297 1.422-0.699 2.071-1.349s1.052-1.303 1.349-2.071c0.288-0.746 0.489-1.596 0.544-2.839 0.055-1.248 0.069-1.646 0.069-4.824s-0.014-3.575-0.069-4.824c-0.055-1.244-0.256-2.099-0.544-2.839-0.288-0.778-0.686-1.431-1.34-2.081-0.649-0.649-1.303-1.052-2.071-1.349-0.746-0.288-1.596-0.489-2.839-0.544-1.253-0.059-1.651-0.073-4.829-0.073l-0.001 0.001z"></path>
<path fill="#fff" style="fill: var(--color1, #fff)" d="M15.608 10.289c-3.319 0-6.013 2.693-6.013 6.013s2.693 6.013 6.013 6.013c3.32 0 6.013-2.693 6.013-6.013s-2.693-6.013-6.013-6.013zM15.608 20.203c-2.154 0-3.9-1.746-3.9-3.9s1.746-3.9 3.9-3.9c2.154 0 3.9 1.746 3.9 3.9s-1.746 3.9-3.9 3.9z"></path>
<path fill="#fff" style="fill: var(--color1, #fff)" d="M23.261 10.052c0 0.775-0.628 1.404-1.404 1.404s-1.404-0.628-1.404-1.404c0-0.775 0.628-1.404 1.404-1.404s1.404 0.628 1.404 1.404z"></path>
</symbol>
<symbol id="icon-Facebook" viewBox="0 0 31 32">
<path fill="#fff" style="fill: var(--color1, #fff)" d="M28.618 16.699c0-7.228-5.824-13.088-13.008-13.088s-13.008 5.86-13.008 13.088c0 6.532 4.757 11.947 10.976 12.929v-9.146h-3.303v-3.783h3.303v-2.883c0-3.28 1.942-5.092 4.913-5.092 1.423 0 2.912 0.256 2.912 0.256v3.221h-1.64c-1.616 0-2.12 1.009-2.12 2.044v2.455h3.608l-0.577 3.783h-3.031v9.146c6.219-0.982 10.976-6.396 10.976-12.929z"></path>
</symbol>
<symbol id="icon-Logo" viewBox="0 0 73 32">
<path fill="#764191" style="fill: var(--color2, #764191)" d="M18.932 9.969c0.363-0.042 0.784 0.039 1.134 0.146 0.792 0.241 1.436 0.758 1.818 1.495 0.397 0.756 0.473 1.64 0.211 2.453-0.332 1.002-1.046 1.506-1.936 1.97l0.010 2.923c0.636 0.194 1.255 0.414 1.833 0.748 1.328 0.77 2.236 2.067 2.617 3.544 0.402 1.548 0.174 3.194-0.636 4.574-0.743 1.251-1.927 2.175-3.345 2.529-1.853 0.463-3.424-0.038-5.016-0.985-0.704 0.752-1.399 1.513-2.085 2.282 0.307 0.724 0.409 1.483 0.205 2.253-0.199 0.752-0.726 1.396-1.4 1.777-0.755 0.427-1.616 0.505-2.443 0.268-0.822-0.235-1.512-0.744-1.914-1.508-0.395-0.752-0.429-1.633-0.172-2.436 0.291-0.912 0.885-1.474 1.72-1.891 0.899-0.351 1.641-0.236 2.519 0.080 0.73-0.768 1.418-1.576 2.155-2.338-0.811-1.59-1.074-2.945-0.652-4.697-0.918-0.428-1.803-0.927-2.721-1.356-0.491 0.511-1.091 0.861-1.796 0.98-0.84 0.141-1.726-0.088-2.416-0.581-0.684-0.496-1.134-1.252-1.245-2.090-0.113-0.812 0.101-1.707 0.621-2.348 0.536-0.661 1.369-1.061 2.209-1.149 0.826-0.080 1.65 0.172 2.29 0.7 0.818 0.685 1.055 1.537 1.154 2.552 0.871 0.534 1.867 0.945 2.774 1.421 1.18-1.395 2.043-1.835 3.764-2.366l0.001-2.901c-0.308-0.123-0.615-0.273-0.883-0.47-0.679-0.502-1.125-1.258-1.235-2.095-0.102-0.833 0.134-1.672 0.654-2.33 0.568-0.713 1.328-1.037 2.209-1.154zM22.726 24.401c-0.175-1.996-1.929-3.476-3.926-3.313-2.014 0.164-3.51 1.936-3.334 3.949s1.958 3.499 3.97 3.31c1.994-0.188 3.464-1.95 3.289-3.946z"></path>
<path fill="#764191" style="fill: var(--color2, #764191)" d="M39.768 19.85c1.044 3.217 2.38 6.347 3.398 9.573l-1.924 0.002c-0.225-0.689-0.443-1.468-0.787-2.105-0.225-0.096-0.491-0.064-0.731-0.061-0.928 0.009-1.856 0.007-2.784-0.009-0.291 0.711-0.526 1.442-0.757 2.174l-1.959-0.002c1.023-3.212 2.243-6.382 3.348-9.568 0.731 0.016 1.466-0.001 2.197-0.004zM38.671 22.229c-0.405 1.152-0.783 2.319-1.226 3.456l1.409-0.001 1.095-0.012c-0.154-0.433-1.047-3.251-1.277-3.443z"></path>
<path fill="#764191" style="fill: var(--color2, #764191)" d="M58.548 22.326c0.912-0.071 1.863-0.007 2.601 0.608 0.517 0.43 0.684 0.947 0.74 1.589l-1.649-0.002c-0.095-0.176-0.19-0.381-0.339-0.519-0.238-0.219-0.582-0.333-0.903-0.316-0.25 0.014-0.569 0.113-0.724 0.325-0.094 0.129-0.146 0.261-0.11 0.421 0.187 0.846 2.337 0.741 3.022 1.189 0.435 0.285 0.77 0.797 0.867 1.307 0.097 0.522-0.028 1.061-0.342 1.487-0.525 0.724-1.335 0.985-2.177 1.114-0.78 0.047-1.684-0.162-2.309-0.637-0.585-0.446-0.796-0.993-0.876-1.697 0.555 0.001 1.111-0.004 1.667-0.015 0.033 0.105 0.069 0.206 0.121 0.303 0.242 0.446 0.725 0.546 1.173 0.677 0.296-0.068 0.696-0.144 0.906-0.383 0.127-0.145 0.171-0.395 0.118-0.579-0.205-0.707-2.265-0.79-2.98-1.23-0.423-0.261-0.734-0.64-0.847-1.13-0.102-0.444-0.063-0.943 0.187-1.332 0.451-0.704 1.073-0.993 1.857-1.18z"></path>
<path fill="#764191" style="fill: var(--color2, #764191)" d="M69.643 22.324c0.519-0.042 1.028-0.039 1.534 0.098 0.584 0.158 1.204 0.484 1.5 1.038 0.142 0.265 0.251 0.742 0.156 1.037-0.473 0.102-1.051 0.033-1.537 0.028-0.072-0.241-0.132-0.426-0.328-0.593-0.247-0.207-0.569-0.305-0.89-0.27-0.251 0.026-0.574 0.149-0.714 0.374-0.084 0.134-0.118 0.272-0.065 0.426 0.304 0.895 2.124 0.682 2.832 1.086 0.451 0.258 0.828 0.711 0.956 1.218 0.138 0.544 0.047 1.149-0.267 1.618-0.469 0.699-1.214 0.962-2.001 1.115-0.772 0.096-1.666-0.069-2.311-0.514-0.663-0.457-0.862-1.030-1.010-1.779l1.653-0.012c0.1 0.253 0.192 0.45 0.406 0.625 0.285 0.234 0.624 0.34 0.992 0.291 0.285-0.038 0.566-0.169 0.737-0.408 0.111-0.157 0.167-0.347 0.114-0.538-0.207-0.735-2.032-0.689-2.757-1.080-0.489-0.264-0.877-0.702-1.032-1.241-0.132-0.456-0.077-0.93 0.164-1.34 0.4-0.679 1.133-1.010 1.869-1.18z"></path>
<path fill="#764191" style="fill: var(--color2, #764191)" d="M49.293 20.622c0.549 0.019 1.102 0.007 1.651 0.010-0.006 0.62 0.003 1.24 0.027 1.859l1.629 0.001-0.004 1.42-1.551-0.001c0.001 0.893-0.204 3.198 0.206 3.888 0.32 0.252 0.959 0.158 1.348 0.154l-0.006 1.176c0.004 0.121 0.003 0.183-0.059 0.288-0.217 0.104-0.439 0.127-0.678 0.129-0.63 0.005-1.5-0.108-1.953-0.581-0.91-0.947-0.619-3.735-0.615-5.057l-1.051 0.002 0.003-1.423 1.047 0.007 0.005-1.873z"></path>
<path fill="#764191" style="fill: var(--color2, #764191)" d="M63.452 20.614l1.62 0.009c-0.012 0.621 0.013 1.244 0.025 1.865l1.655-0.003-0.002 1.426-1.558-0.001c0.019 0.851-0.189 3.226 0.196 3.869 0.414 0.247 0.933 0.181 1.398 0.18-0.006 0.41 0.002 0.82 0.004 1.231l-0.020 0.155c-0.16 0.17-0.407 0.162-0.626 0.168-0.665 0.016-1.585-0.089-2.067-0.595-0.901-0.943-0.62-3.691-0.612-5.009l-1.108 0.001c-0.014-0.472-0.009-0.946-0.012-1.418l1.104 0.006 0.003-1.884z"></path>
<path fill="#764191" style="fill: var(--color2, #764191)" d="M28.497 19.553c0.085-0.004 0.168-0.005 0.253 0.007 0.265 0.038 0.526 0.166 0.672 0.399 0.155 0.247 0.176 0.575 0.197 0.861 0.105 1.414 0.027 2.886 0.027 4.305-0 1.159 0.128 2.731-0.087 3.847-0.068 0.351-0.3 0.519-0.579 0.709-0.106 0.013-0.217 0.027-0.324 0.021-0.239-0.013-0.466-0.12-0.62-0.302-0.153-0.181-0.148-0.543-0.162-0.77-0.097-1.627-0.015-3.306-0.014-4.938 0.001-0.927-0.127-2.702 0.068-3.53 0.070-0.296 0.337-0.451 0.57-0.609z"></path>
<path fill="#764191" style="fill: var(--color2, #764191)" d="M47.285 22.466l0.233-0.003c0.276 0.308 0.139 1.286 0.13 1.691-0.583-0.006-1.135-0.029-1.591 0.394-0.857 0.795-0.568 3.708-0.577 4.876-0.459-0.004-1.354 0.164-1.705-0.129l-0.018-0.29c0.008-2.166-0.046-4.331-0.032-6.497 0.556 0.017 1.114 0.005 1.671 0.003l-0.020 0.957c0.103-0.148 0.206-0.307 0.325-0.442 0.422-0.476 0.994-0.519 1.584-0.561z"></path>
<path fill="#764191" style="fill: var(--color2, #764191)" d="M53.612 22.495l1.748 0.001 0.004 6.933-1.768-0.003 0.016-6.931z"></path>
<path fill="#764191" style="fill: var(--color2, #764191)" d="M26.057 21.825c0.287 0.053 0.541 0.161 0.708 0.41 0.258 0.384 0.265 4.151 0.136 4.689-0.071 0.294-0.325 0.437-0.566 0.579-0.276-0.017-0.639-0.041-0.823-0.28-0.274-0.356-0.252-4.359-0.095-4.861 0.091-0.292 0.391-0.415 0.641-0.536z"></path>
<path fill="#764191" style="fill: var(--color2, #764191)" d="M54.37 19.638c0.519-0.061 0.993 0.302 1.069 0.819s-0.273 1.001-0.787 1.093c-0.347 0.062-0.7-0.070-0.921-0.344s-0.276-0.646-0.143-0.973c0.133-0.326 0.432-0.554 0.782-0.595z"></path>
</symbol>
</defs>
</svg>