<!-- Generated by IcoMoon.io -->
<svg version="1.1" xmlns="http://www.w3.org/2000/svg" width="1024" height="1024" viewBox="0 0 1024 1024">
<g id="icomoon-ignore">
</g>
<path d="M560.016 100.477c12.301-1.319 26.557 1.245 38.406 4.609 26.805 7.608 48.573 23.898 61.499 47.156 13.432 23.841 16.014 51.713 7.157 77.343-11.25 31.61-35.368 47.501-65.501 62.11l0.344 92.187c21.533 6.117 42.48 13.050 62.032 23.61 44.938 24.27 75.675 65.197 88.562 111.765 13.622 48.835 5.869 100.723-21.547 144.25-25.142 39.45-65.224 68.587-113.218 79.75-62.702 14.598-115.89-1.208-169.782-31.062-23.819 23.731-47.35 47.731-70.578 71.984 10.386 22.826 13.824 46.778 6.938 71.032-6.731 23.71-24.566 44.019-47.374 56.030-25.56 13.48-54.682 15.942-82.704 8.469-27.81-7.414-51.173-23.474-64.765-47.594-13.378-23.714-14.517-51.496-5.845-76.813 9.867-28.773 29.963-46.506 58.219-59.656 30.413-11.083 55.563-7.432 85.25 2.531 24.715-24.232 47.984-49.683 72.954-73.702-27.446-50.149-36.331-92.866-22.062-148.125-31.072-13.515-61.035-29.259-92.125-42.797-16.613 16.114-36.918 27.168-60.766 30.906-28.437 4.461-58.421-2.771-81.796-18.328-23.16-15.634-38.399-39.458-42.141-65.875-3.84-25.618 3.408-53.845 21.016-74.062 18.157-20.851 46.328-33.442 74.78-36.219 27.96-2.538 55.861 5.41 77.517 22.078 27.686 21.608 35.674 48.472 39.030 80.485 29.469 16.834 63.216 29.813 93.922 44.843 39.95-44.005 69.146-57.883 127.376-74.61l0.046-91.499c-10.424-3.888-20.838-8.606-29.922-14.829-22.974-15.834-38.058-39.693-41.781-66.093-3.443-26.261 4.517-52.718 22.109-73.485 19.23-22.476 44.933-32.713 74.75-36.391zM688.39 555.586c-5.923-62.939-65.266-109.618-132.843-104.499-68.189 5.166-118.837 61.070-112.859 124.562 5.976 63.514 66.291 110.342 134.406 104.376 67.504-5.93 117.219-61.506 111.296-124.438z"></path>
<path d="M883.754 402.734c2.883-0.134 5.682-0.173 8.549 0.214 8.965 1.21 17.797 5.245 22.734 12.576 5.237 7.781 5.954 18.141 6.672 27.154 3.554 44.603 0.914 91.005 0.901 135.768-0.010 36.555 4.338 86.125-2.947 121.328-2.293 11.066-10.168 16.357-19.598 22.344-3.59 0.405-7.35 0.869-10.973 0.675-8.094-0.426-15.76-3.786-20.994-9.539-5.174-5.698-5.026-17.13-5.483-24.274-3.29-51.309-0.509-104.259-0.459-155.722 0.030-29.245-4.285-85.226 2.314-111.325 2.36-9.336 11.394-14.23 19.285-19.2z"></path>
<path d="M801.138 474.398c9.712 1.669 18.304 5.069 23.965 12.928 8.73 12.126 8.966 130.92 4.592 147.874-2.39 9.27-10.998 13.789-19.158 18.25-9.344-0.522-21.629-1.294-27.869-8.845-9.286-11.219-8.518-137.475-3.23-153.307 3.070-9.2 13.222-13.090 21.701-16.899z"></path>
</svg>
