<svg width="21" height="15" viewBox="0 0 21 15" fill="none" xmlns="http://www.w3.org/2000/svg">
<path d="M20.5933 2.4159C20.4794 1.9933 20.2568 1.6079 19.9477 1.29807C19.6386 0.988229 19.2537 0.764759 18.8313 0.649898C17.2653 0.219898 11.0003 0.212898 11.0003 0.212898C11.0003 0.212898 4.73633 0.205898 3.16933 0.616898C2.74725 0.737045 2.36315 0.963675 2.0539 1.27503C1.74464 1.58639 1.52062 1.97202 1.40333 2.3949C0.99033 3.9609 0.98633 7.2089 0.98633 7.2089C0.98633 7.2089 0.98233 10.4729 1.39233 12.0229C1.62233 12.8799 2.29733 13.5569 3.15533 13.7879C4.73733 14.2179 10.9853 14.2249 10.9853 14.2249C10.9853 14.2249 17.2503 14.2319 18.8163 13.8219C19.2388 13.7072 19.6241 13.4843 19.934 13.1751C20.2439 12.8659 20.4677 12.4811 20.5833 12.0589C20.9973 10.4939 21.0003 7.2469 21.0003 7.2469C21.0003 7.2469 21.0203 3.9819 20.5933 2.4159ZM8.99633 10.2179L9.00133 4.2179L14.2083 7.2229L8.99633 10.2179Z" fill="white"/>
</svg>
